<mxfile host="app.diagrams.net" modified="2023-06-04T13:27:59.121Z" agent="Mozilla/5.0 (Macintosh; Intel Mac OS X 10_15_7) AppleWebKit/537.36 (KHTML, like Gecko) Chrome/114.0.0.0 Safari/537.36" etag="1c48P6l5T6Nmu0E1ofG4" version="21.3.7" type="github">
  <diagram name="Page-1" id="BrzruNbnOGgeVCfWDCeQ">
    <mxGraphModel dx="980" dy="734" grid="1" gridSize="10" guides="1" tooltips="1" connect="1" arrows="1" fold="1" page="1" pageScale="1" pageWidth="827" pageHeight="1169" math="0" shadow="0">
      <root>
        <mxCell id="0" />
        <mxCell id="1" parent="0" />
        <mxCell id="xm4klsqdI6pSyHAmpxLW-2" value="" style="rounded=0;whiteSpace=wrap;html=1;" vertex="1" parent="1">
          <mxGeometry x="310" y="230" width="390" height="220" as="geometry" />
        </mxCell>
        <mxCell id="xm4klsqdI6pSyHAmpxLW-3" value="Docker Network" style="text;html=1;strokeColor=none;fillColor=none;align=center;verticalAlign=middle;whiteSpace=wrap;rounded=0;" vertex="1" parent="1">
          <mxGeometry x="310" y="230" width="110" height="30" as="geometry" />
        </mxCell>
        <mxCell id="xm4klsqdI6pSyHAmpxLW-4" value="Nginx:80/443" style="shape=process;whiteSpace=wrap;html=1;backgroundOutline=1;" vertex="1" parent="1">
          <mxGeometry x="340" y="310" width="120" height="60" as="geometry" />
        </mxCell>
        <mxCell id="xm4klsqdI6pSyHAmpxLW-5" value="app1:8888" style="shape=process;whiteSpace=wrap;html=1;backgroundOutline=1;" vertex="1" parent="1">
          <mxGeometry x="524" y="280" width="120" height="60" as="geometry" />
        </mxCell>
        <mxCell id="xm4klsqdI6pSyHAmpxLW-6" value="app2:8888" style="shape=process;whiteSpace=wrap;html=1;backgroundOutline=1;" vertex="1" parent="1">
          <mxGeometry x="524" y="350" width="120" height="60" as="geometry" />
        </mxCell>
        <mxCell id="xm4klsqdI6pSyHAmpxLW-12" style="edgeStyle=orthogonalEdgeStyle;rounded=0;orthogonalLoop=1;jettySize=auto;html=1;entryX=0;entryY=0.5;entryDx=0;entryDy=0;" edge="1" parent="1" source="xm4klsqdI6pSyHAmpxLW-7" target="xm4klsqdI6pSyHAmpxLW-8">
          <mxGeometry relative="1" as="geometry" />
        </mxCell>
        <mxCell id="xm4klsqdI6pSyHAmpxLW-7" value="Actor" style="shape=umlActor;verticalLabelPosition=bottom;verticalAlign=top;html=1;outlineConnect=0;" vertex="1" parent="1">
          <mxGeometry x="40" y="310" width="30" height="60" as="geometry" />
        </mxCell>
        <mxCell id="xm4klsqdI6pSyHAmpxLW-8" value="" style="rounded=0;whiteSpace=wrap;html=1;" vertex="1" parent="1">
          <mxGeometry x="120" y="270" width="160" height="140" as="geometry" />
        </mxCell>
        <mxCell id="xm4klsqdI6pSyHAmpxLW-9" value="Host Network" style="text;html=1;strokeColor=none;fillColor=none;align=center;verticalAlign=middle;whiteSpace=wrap;rounded=0;" vertex="1" parent="1">
          <mxGeometry x="120" y="270" width="100" height="30" as="geometry" />
        </mxCell>
        <mxCell id="xm4klsqdI6pSyHAmpxLW-11" style="edgeStyle=orthogonalEdgeStyle;rounded=0;orthogonalLoop=1;jettySize=auto;html=1;entryX=0;entryY=0.5;entryDx=0;entryDy=0;" edge="1" parent="1" source="xm4klsqdI6pSyHAmpxLW-10" target="xm4klsqdI6pSyHAmpxLW-4">
          <mxGeometry relative="1" as="geometry" />
        </mxCell>
        <mxCell id="xm4klsqdI6pSyHAmpxLW-10" value="Port 80/443" style="text;html=1;strokeColor=none;fillColor=none;align=center;verticalAlign=middle;whiteSpace=wrap;rounded=0;" vertex="1" parent="1">
          <mxGeometry x="160" y="325" width="80" height="30" as="geometry" />
        </mxCell>
      </root>
    </mxGraphModel>
  </diagram>
</mxfile>
